<svg width="27" height="24" viewBox="0 0 27 24" fill="none" xmlns="http://www.w3.org/2000/svg">
<path fill-rule="evenodd" clip-rule="evenodd" d="M8.33301 1.33333C8.33301 0.597333 8.88368 0 9.56367 0H17.769C18.449 0 18.9997 0.597333 18.9997 1.33333C18.9997 2.06933 18.449 2.66667 17.769 2.66667H9.56367C8.88368 2.66667 8.33301 2.06933 8.33301 1.33333ZM10.7037 24H16.629C20.7903 24 22.8717 24 24.3663 23.0373C25.0094 22.6239 25.5649 22.0879 26.001 21.46C26.9997 20.02 26.9997 18.0133 26.9997 14C26.9997 9.98667 26.9997 7.98133 25.9997 6.54C25.564 5.91215 25.009 5.37619 24.3663 4.96267C22.8717 4 20.7903 4 16.629 4H10.7037C6.54234 4 4.46101 4 2.96634 4.96267C2.3237 5.37622 1.76872 5.91218 1.33301 6.54C0.333008 7.98 0.333008 9.98667 0.333008 13.9973V14C0.333008 18.0133 0.333008 20.0187 1.33167 21.46C1.76367 22.084 2.31834 22.62 2.96634 23.0373C4.46101 24 6.54234 24 10.7037 24ZM8.11034 14C8.11034 11.04 10.5983 8.64267 13.6663 8.64267C16.7343 8.64267 19.2223 11.0413 19.2223 14C19.2223 16.9587 16.733 19.3573 13.6663 19.3573C10.5983 19.3573 8.11034 16.9573 8.11034 14ZM10.333 14C10.333 12.224 11.8263 10.7867 13.6663 10.7867C15.5063 10.7867 16.9997 12.2253 16.9997 14C16.9997 15.7747 15.5063 17.2133 13.6663 17.2133C11.8263 17.2133 10.333 15.7747 10.333 14ZM21.8143 8.64267C21.201 8.64267 20.7037 9.12267 20.7037 9.71467C20.7037 10.3053 21.201 10.7853 21.8143 10.7853H22.5557C23.169 10.7853 23.6663 10.3053 23.6663 9.71467C23.6663 9.12267 23.169 8.64267 22.5557 8.64267H21.8143Z" fill="#242760" fill-opacity="0.81"/>
</svg>
