<svg width="40" height="42" viewBox="0 0 40 42" fill="none" xmlns="http://www.w3.org/2000/svg">
<ellipse cx="19.9798" cy="20.9309" rx="19.9798" ry="20.1255" fill="#4C24B1"/>
<mask id="path-2-inside-1_130_144" fill="white">
<path fill-rule="evenodd" clip-rule="evenodd" d="M19.9799 24.15C18.7917 26.557 16.3125 28.2126 13.4466 28.2126C9.425 28.2126 6.16486 24.9525 6.16486 20.9309C6.16486 16.9093 9.425 13.6492 13.4466 13.6492C16.3125 13.6492 18.7917 15.3048 19.9799 17.7118C21.1682 15.3048 23.6474 13.6492 26.5132 13.6492C30.5348 13.6492 33.795 16.9093 33.795 20.9309C33.795 24.9525 30.5348 28.2126 26.5132 28.2126C23.6474 28.2126 21.1682 26.557 19.9799 24.15Z"/>
</mask>
<path fill-rule="evenodd" clip-rule="evenodd" d="M19.9799 24.15C18.7917 26.557 16.3125 28.2126 13.4466 28.2126C9.425 28.2126 6.16486 24.9525 6.16486 20.9309C6.16486 16.9093 9.425 13.6492 13.4466 13.6492C16.3125 13.6492 18.7917 15.3048 19.9799 17.7118C21.1682 15.3048 23.6474 13.6492 26.5132 13.6492C30.5348 13.6492 33.795 16.9093 33.795 20.9309C33.795 24.9525 30.5348 28.2126 26.5132 28.2126C23.6474 28.2126 21.1682 26.557 19.9799 24.15Z" fill="black"/>
<path d="M19.9799 24.15L22.8349 22.7406L19.9799 16.9573L17.1249 22.7406L19.9799 24.15ZM19.9799 17.7118L17.1249 19.1212L19.9799 24.9045L22.8349 19.1212L19.9799 17.7118ZM17.1249 22.7406C16.4524 24.1028 15.0547 25.0287 13.4466 25.0287V31.3966C17.5703 31.3966 21.1309 29.0112 22.8349 25.5595L17.1249 22.7406ZM13.4466 25.0287C11.1835 25.0287 9.34882 23.194 9.34882 20.9309H2.98089C2.98089 26.7109 7.66654 31.3966 13.4466 31.3966V25.0287ZM9.34882 20.9309C9.34882 18.6678 11.1835 16.8331 13.4466 16.8331V10.4652C7.66654 10.4652 2.98089 15.1509 2.98089 20.9309H9.34882ZM13.4466 16.8331C15.0547 16.8331 16.4524 17.759 17.1249 19.1212L22.8349 16.3023C21.1309 12.8506 17.5703 10.4652 13.4466 10.4652V16.8331ZM22.8349 19.1212C23.5074 17.759 24.9052 16.8331 26.5132 16.8331V10.4652C22.3895 10.4652 18.8289 12.8506 17.1249 16.3023L22.8349 19.1212ZM26.5132 16.8331C28.7764 16.8331 30.611 18.6678 30.611 20.9309H36.9789C36.9789 15.1509 32.2933 10.4652 26.5132 10.4652V16.8331ZM30.611 20.9309C30.611 23.194 28.7764 25.0287 26.5132 25.0287V31.3966C32.2933 31.3966 36.9789 26.7109 36.9789 20.9309H30.611ZM26.5132 25.0287C24.9052 25.0287 23.5074 24.1028 22.8349 22.7406L17.1249 25.5595C18.8289 29.0112 22.3895 31.3966 26.5132 31.3966V25.0287Z" fill="white" mask="url(#path-2-inside-1_130_144)"/>
</svg>
