<svg width="14" height="15" viewBox="0 0 14 15" fill="none" xmlns="http://www.w3.org/2000/svg">
    <path fill-rule="evenodd" clip-rule="evenodd"
        d="M14 7.5C14 11.366 10.866 14.5 7 14.5C3.13401 14.5 0 11.366 0 7.5C0 3.63401 3.13401 0.5 7 0.5C10.866 0.5 14 3.63401 14 7.5ZM9.24497 5.25502C9.51834 5.52839 9.51834 5.97161 9.24497 6.24497L7.98995 7.5L9.24497 8.75502C9.51834 9.02839 9.51834 9.47161 9.24497 9.74497C8.97161 10.0183 8.52839 10.0183 8.25502 9.74497L7 8.48995L5.74497 9.74497C5.47161 10.0183 5.02839 10.0183 4.75502 9.74497C4.48166 9.47161 4.48166 9.02839 4.75502 8.75502L6.01005 7.5L4.75502 6.24497C4.48166 5.97161 4.48166 5.52839 4.75502 5.25502C5.02839 4.98166 5.47161 4.98166 5.74497 5.25502L7 6.51005L8.25502 5.25502C8.52839 4.98166 8.97161 4.98166 9.24497 5.25502Z"
        fill="#99A2AB" />
</svg>