<svg width="18" height="18" viewBox="0 0 18 18" fill="none" xmlns="http://www.w3.org/2000/svg">
<g clip-path="url(#clip0_277_532)">
<path d="M17.6728 5.363L14.7963 8.23955C14.5888 8.44704 14.3169 8.55077 14.045 8.55077C13.773 8.55077 13.5011 8.44704 13.2936 8.23955C12.8787 7.82461 12.8787 7.15188 13.2936 6.73694L14.3564 5.67421H3.21692C2.63012 5.67421 2.15442 5.19851 2.15442 4.61171C2.15442 4.02491 2.63012 3.54921 3.21692 3.54921H14.3564L13.2936 2.48648C12.8787 2.07154 12.8787 1.39881 13.2936 0.983873C13.7086 0.568934 14.3813 0.568934 14.7963 0.983873L17.6728 3.86043C18.0877 4.27533 18.0877 4.94809 17.6728 5.363ZM15.17 12.6711H4.61162L5.67438 11.6084C6.08929 11.1934 6.08929 10.5207 5.67438 10.1058C5.25941 9.69083 4.58671 9.69083 4.17174 10.1058L1.29519 12.9823C0.880282 13.3973 0.880282 14.07 1.29519 14.4849L4.17174 17.3615C4.37923 17.569 4.65113 17.6727 4.92306 17.6727C5.195 17.6727 5.4669 17.569 5.67438 17.3615C6.08929 16.9465 6.08929 16.2738 5.67438 15.8589L4.61162 14.7961H15.17C15.7568 14.7961 16.2325 14.3204 16.2325 13.7336C16.2325 13.1468 15.7568 12.6711 15.17 12.6711Z" fill="#4C24B1"/>
</g>
<defs>
<clipPath id="clip0_277_532">
<rect width="17" height="17" fill="white" transform="translate(0.984009 0.672424)"/>
</clipPath>
</defs>
</svg>
