<svg width="18" height="18" viewBox="0 0 18 18" fill="none" xmlns="http://www.w3.org/2000/svg">
<g clip-path="url(#clip0_277_579)">
<path d="M12.5506 17.5681L9.67408 14.6915C9.4666 14.4841 9.36287 14.2122 9.36287 13.9402C9.36287 13.6683 9.4666 13.3964 9.67408 13.1889C10.089 12.774 10.7618 12.774 11.1767 13.1889L12.2394 14.2517L12.2394 3.11218C12.2394 2.52538 12.7151 2.04968 13.3019 2.04968C13.8887 2.04968 14.3644 2.52538 14.3644 3.11218L14.3644 14.2517L15.4272 13.1889C15.8421 12.774 16.5148 12.774 16.9298 13.1889C17.3447 13.6039 17.3447 14.2766 16.9298 14.6915L14.0532 17.5681C13.6383 17.983 12.9655 17.983 12.5506 17.5681ZM5.24253 15.0653L5.24253 4.50688L6.30526 5.56964C6.7202 5.98455 7.39293 5.98455 7.80787 5.56964C8.22281 5.15467 8.22281 4.48198 7.80787 4.067L4.93132 1.19045C4.51638 0.775545 3.84365 0.775545 3.42871 1.19045L0.552156 4.067C0.344671 4.27449 0.240944 4.54639 0.240944 4.81832C0.240944 5.09026 0.344671 5.36216 0.552156 5.56964C0.967096 5.98455 1.63982 5.98455 2.05476 5.56964L3.1175 4.50688L3.1175 15.0653C3.1175 15.6521 3.5932 16.1278 4.17999 16.1278C4.76679 16.1278 5.24253 15.6521 5.24253 15.0653Z" fill="black"/>
</g>
<defs>
<clipPath id="clip0_277_579">
<rect width="17" height="17" fill="white" transform="translate(17.2412 0.879272) rotate(90)"/>
</clipPath>
</defs>
</svg>
