<svg width="26" height="26" viewBox="0 0 26 26" fill="none" xmlns="http://www.w3.org/2000/svg">
<path d="M13.0175 3.09913C12.4697 3.09913 12.0252 2.6548 12.0252 2.10733V1.11552C12.0252 0.568047 12.4697 0.123718 13.0175 0.123718C13.5652 0.123718 14.0098 0.568047 14.0098 1.11552V2.10733C14.0098 2.6548 13.5652 3.09913 13.0175 3.09913Z" fill="#595959"/>
<path d="M21.6774 11.7551C21.1297 11.7551 20.6851 11.3108 20.6851 10.7633C20.6851 6.73263 17.4105 3.29801 13.3857 3.10758C9.356 2.92162 5.76337 6.02348 5.38381 10.0309C5.36099 10.2704 5.34958 10.5164 5.34958 10.7633C5.34958 11.3108 4.90503 11.7551 4.35728 11.7551C3.80953 11.7551 3.36497 11.3108 3.36497 10.7633C3.36497 10.4539 3.37936 10.1444 3.40814 9.84392C3.88593 4.79761 8.40934 0.887919 13.4795 1.12645C18.5472 1.36597 22.6697 5.68925 22.6697 10.7633C22.6697 11.3113 22.2252 11.7551 21.6774 11.7551Z" fill="#595959"/>
<path d="M23.5374 18.5197C23.2928 18.5197 23.0472 18.4294 22.8552 18.2484C21.4759 16.9432 20.6845 15.1054 20.6845 13.2066C20.6845 12.6591 21.1291 12.2148 21.6768 12.2148C22.2246 12.2148 22.6691 12.6591 22.6691 13.2066C22.6691 14.5629 23.2343 15.876 24.2196 16.8078C24.6175 17.1842 24.6349 17.812 24.2583 18.2102C24.0633 18.4155 23.8004 18.5197 23.5374 18.5197Z" fill="#595959"/>
<path d="M2.49663 18.5197C2.23317 18.5197 1.97071 18.416 1.77572 18.2097C1.39914 17.812 1.41651 17.1842 1.81442 16.8078C2.79978 15.876 3.36489 14.5634 3.36489 13.2066C3.36489 12.6591 3.80945 12.2148 4.3572 12.2148C4.90495 12.2148 5.3495 12.6591 5.3495 13.2066C5.3495 15.1064 4.55814 16.9442 3.17884 18.2484C2.98633 18.4294 2.74123 18.5197 2.49663 18.5197Z" fill="#595959"/>
<path d="M13.0175 25.9107C10.3283 25.9107 8.05595 23.6394 8.05595 20.9516C8.05595 20.4042 8.5005 19.9598 9.04825 19.9598C9.596 19.9598 10.0406 20.4042 10.0406 20.9516C10.0406 22.5643 11.404 23.9271 13.0175 23.9271C14.6309 23.9271 15.9944 22.5643 15.9944 20.9516C15.9944 20.4042 16.4389 19.9598 16.9867 19.9598C17.5344 19.9598 17.979 20.4042 17.979 20.9516C17.979 23.6394 15.7066 25.9107 13.0175 25.9107Z" fill="#595959"/>
<path d="M3.86058 21.9434C2.65146 21.9434 1.57581 21.2045 1.11984 20.061C0.663384 18.916 0.935771 17.639 1.81396 16.8079C2.21187 16.431 2.8395 16.4484 3.21707 16.8461C3.59365 17.2438 3.57678 17.8716 3.17887 18.2485C2.74424 18.6601 2.904 19.1783 2.96354 19.3271C3.02258 19.4748 3.26222 19.9598 3.86058 19.9598C4.40833 19.9598 4.85288 20.4042 4.85288 20.9516C4.85288 21.4991 4.40882 21.9434 3.86058 21.9434Z" fill="#595959"/>
<path d="M22.1735 21.9435C21.6257 21.9435 21.1812 21.4991 21.1812 20.9516C21.1812 20.4042 21.6257 19.9598 22.1735 19.9598C22.7723 19.9598 23.0125 19.4729 23.072 19.3236C23.131 19.1753 23.2903 18.6591 22.8557 18.248C22.4578 17.8711 22.4404 17.2438 22.817 16.8456C23.194 16.4479 23.8217 16.4305 24.2201 16.8069C25.0983 17.638 25.3711 18.914 24.9157 20.057C24.4592 21.2031 23.3826 21.9435 22.1735 21.9435Z" fill="#595959"/>
<path d="M4.35679 14.1979C3.80904 14.1979 3.36449 13.7536 3.36449 13.2061V10.7633C3.36449 10.2158 3.80904 9.77148 4.35679 9.77148C4.90455 9.77148 5.3491 10.2158 5.3491 10.7633V13.2061C5.3491 13.7536 4.90504 14.1979 4.35679 14.1979Z" fill="#595959"/>
<path d="M21.6773 14.1979C21.1296 14.1979 20.685 13.7536 20.685 13.2061V10.7633C20.685 10.2158 21.1296 9.77148 21.6773 9.77148C22.2251 9.77148 22.6696 10.2158 22.6696 10.7633V13.2061C22.6696 13.7536 22.2251 14.1979 21.6773 14.1979Z" fill="#595959"/>
<path d="M22.1736 21.9434H3.86065C3.3129 21.9434 2.86835 21.4991 2.86835 20.9516C2.86835 20.4042 3.3129 19.9598 3.86065 19.9598H22.1731C22.7208 19.9598 23.1654 20.4042 23.1654 20.9516C23.1654 21.4991 22.7213 21.9434 22.1736 21.9434Z" fill="#595959"/>
</svg>
