<svg width="26" height="24" viewBox="0 0 26 24" fill="none" xmlns="http://www.w3.org/2000/svg">
<path d="M21.56 9C23.0667 9 25.688 10.3594 25.688 12C25.688 13.6875 23.0667 15 21.56 15H16.4231L11.9956 23.2453C11.7444 23.7141 11.2774 24 10.7708 24H8.2949C7.82791 24 7.48869 23.5219 7.61645 23.0438L9.77516 15H5.24627L3.34308 17.7C3.21091 17.8875 2.99945 18 2.77917 18H0.928848C0.585216 18 0.312073 17.7047 0.312073 17.3438C0.312073 17.2828 0.320884 17.2219 0.3341 17.1609L1.72184 12L0.3341 6.83906C0.316478 6.77812 0.312073 6.71719 0.312073 6.65625C0.312073 6.29063 0.589621 6 0.928848 6H2.77917C2.99945 6 3.21091 6.1125 3.34308 6.3L5.24627 9H9.77957L7.62085 0.95625C7.48869 0.478125 7.82791 0 8.2949 0H10.7708C11.2774 0 11.7444 0.290625 11.9956 0.754688L16.4231 9H21.56Z" fill="#4C24B1"/>
</svg>
