<svg width="25" height="25" viewBox="0 0 25 25" fill="none" xmlns="http://www.w3.org/2000/svg">
<g clip-path="url(#clip0_313_169)">
<path d="M23.5 3.71691C23.5 3.71691 21.482 4.90891 20.36 5.24691C19.7577 4.55442 18.9573 4.0636 18.067 3.84084C17.1767 3.61807 16.2395 3.67411 15.3821 4.00136C14.5247 4.32862 13.7884 4.91131 13.273 5.67063C12.7575 6.42994 12.4877 7.32925 12.5 8.24691V9.24691C10.7426 9.29248 9.00127 8.90272 7.43101 8.11236C5.86074 7.32199 4.51032 6.15555 3.5 4.71691C3.5 4.71691 -0.5 13.7169 8.5 17.7169C6.44053 19.1149 3.98716 19.8158 1.5 19.7169C10.5 24.7169 21.5 19.7169 21.5 8.21691C21.4993 7.93825 21.4727 7.66158 21.42 7.38691C22.44 6.38091 23.5 3.71691 23.5 3.71691Z" stroke="#0D99FF" stroke-width="1.5" stroke-linecap="round" stroke-linejoin="round"/>
</g>
<defs>
<clipPath id="clip0_313_169">
<rect width="24" height="24" fill="white" transform="translate(0.5 0.706909)"/>
</clipPath>
</defs>
</svg>
